<svg style="position: absolute; width: 0; height: 0; overflow: hidden;"
  xmlns="http://www.w3.org/2000/svg" xmlns:xlink="http://www.w3.org/1999/xlink" version="1.1">
  <defs>

    <symbol id="check-mark" >
        <path transform="translate(0.000000,422.000000) scale(0.100000,-0.100000)" d="M4448 4209 c-106 -11 -196 -47 -288 -114 -31 -23 -367 -443 -1075 
                -1344 -566 -720 -1033 -1309 -1037 -1308 -3 1 -247 234 -542 517 -353 340
                -555 527 -594 551 -352 212 -813 12 -898 -391 -39 -183 17 -389 144 -527 43
                -47 1263 -1221 1463 -1408 132 -124 255 -175 421 -177 136 -1 254 36 359 113
                31 22 465 544 1274 1529 675 822 1247 1516 1271 1542 65 70 118 158 145 240
                35 107 34 273 -3 375 -97 272 -352 432 -640 402z" />
    </symbol>

  </defs>
</svg>