<svg style="position: absolute; width: 0; height: 0; overflow: hidden;"
    xmlns="http://www.w3.org/2000/svg" xmlns:xlink="http://www.w3.org/1999/xlink" version="1.1">
    <defs>

        <symbol id="fascinating">
            <g transform="translate(0.000000,2000.000000) scale(0.100000,-0.100000)">
                <path d="M9856 17791 c-11 -21 -27 -31 -61 -40 -26 -6 -135 -46 -243 -87 -108
        -41 -284 -106 -391 -144 -108 -38 -245 -87 -306 -109 -60 -22 -333 -119 -605
        -216 -272 -97 -972 -348 -1555 -557 -583 -209 -1170 -420 -1305 -468 -2819
        -1009 -2934 -1051 -2932 -1075 0 -5 -6 -18 -15 -27 -8 -9 -21 -38 -28 -65 -10
        -36 -13 -41 -14 -21 -1 25 -17 46 -27 36 -2 -3 0 -40 5 -84 6 -43 15 -135 21
        -204 6 -69 15 -150 20 -180 9 -50 94 -788 104 -905 5 -49 45 -401 86 -755 11
        -96 25 -220 30 -275 4 -55 15 -154 24 -220 9 -66 22 -185 31 -265 8 -80 31
        -280 50 -445 19 -165 39 -347 44 -405 6 -58 15 -134 20 -170 5 -36 17 -145 26
        -243 9 -98 20 -201 25 -230 5 -29 36 -297 69 -597 33 -300 69 -621 81 -715 11
        -93 38 -334 60 -535 22 -201 49 -439 59 -530 11 -91 29 -255 41 -365 11 -110
        29 -274 40 -365 11 -91 27 -223 35 -295 8 -71 35 -312 60 -535 25 -223 52
        -466 60 -540 8 -74 41 -369 74 -655 l59 -520 40 -35 c22 -19 63 -42 91 -52 45
        -14 1296 -705 1593 -879 64 -38 119 -69 122 -69 6 0 185 -100 498 -276 87 -49
        320 -179 518 -289 199 -110 369 -207 378 -215 10 -8 24 -16 32 -18 8 -2 709
        -391 1558 -864 1162 -649 1542 -865 1542 -879 0 -13 7 -17 28 -17 15 1 42 -6
        59 -16 42 -21 56 -20 48 3 -7 23 19 41 59 41 14 0 26 4 26 9 0 4 26 18 58 30
        52 19 86 38 221 130 42 29 314 181 509 285 75 41 178 97 227 126 50 29 160 89
        245 133 85 44 198 106 250 137 52 32 129 74 170 95 41 21 86 45 100 55 14 9
        248 140 520 290 272 149 558 307 635 350 111 62 2575 1420 2835 1563 36 20
        171 94 300 166 204 113 235 127 238 110 5 -31 29 -22 36 15 4 20 15 37 29 44
        l22 11 -22 6 c-17 6 -21 13 -17 38 2 18 11 84 18 147 8 63 21 171 30 240 8 69
        20 170 25 225 24 226 51 456 66 555 8 58 33 263 55 455 22 193 46 406 55 475
        8 69 24 206 35 305 37 318 51 429 60 470 5 22 14 99 20 170 15 179 35 367 70
        655 17 135 68 580 115 990 47 410 89 765 94 790 5 25 14 92 20 150 17 166 92
        838 102 915 5 39 21 174 35 300 14 127 32 282 40 345 23 177 61 501 89 750 13
        124 34 302 46 395 12 94 23 193 26 220 3 44 72 676 134 1240 34 313 34 301 13
        308 -11 3 -156 54 -324 115 -168 60 -447 160 -620 222 -320 114 -500 179 -805
        288 -249 90 -536 192 -820 291 -279 98 -2231 793 -2620 934 -317 114 -351 126
        -755 268 -184 64 -553 194 -819 289 -423 149 -700 240 -733 240 -5 0 -43 14
        -85 30 -98 39 -138 40 -157 1z m3154 -1774 c33 -16 53 -59 61 -132 19 -190
        177 -1111 219 -1280 52 -212 95 -510 78 -554 -4 -11 -19 -28 -34 -38 -26 -17
        -67 -17 -678 -15 -775 4 -1074 -9 -1596 -69 -253 -29 -801 -104 -1048 -144
        -118 -19 -235 -35 -260 -35 -46 0 -223 -27 -231 -36 -4 -4 15 -277 49 -694 26
        -307 119 -1559 165 -2200 20 -278 38 -520 41 -538 5 -31 7 -32 24 -20 10 7
        133 90 272 184 308 208 499 328 1038 649 228 136 424 254 436 264 12 9 73 36
        137 60 l114 43 54 -19 c48 -17 65 -32 167 -148 425 -487 673 -868 787 -1209
        41 -122 42 -139 12 -197 -21 -40 -49 -60 -278 -207 -140 -90 -364 -234 -499
        -320 -439 -281 -923 -628 -1315 -941 -176 -140 -705 -591 -740 -630 -19 -22
        -19 -25 19 -539 87 -1190 157 -2059 181 -2237 31 -235 135 -1060 172 -1370 30
        -260 37 -542 14 -655 -16 -85 -77 -240 -102 -262 -14 -12 -38 -17 -81 -17 -55
        1 -95 14 -382 129 -177 70 -366 148 -421 172 -55 25 -287 128 -515 230 -478
        214 -660 301 -677 326 -16 24 -33 187 -38 372 -5 149 -35 566 -110 1520 -19
        245 -62 814 -95 1265 -75 1022 -128 1721 -180 2385 -22 283 -76 1006 -120
        1605 -44 600 -89 1203 -100 1340 -11 138 -33 421 -49 630 -17 209 -57 754 -91
        1210 -44 613 -64 843 -76 878 -12 34 -15 67 -11 109 9 99 23 109 342 227 253
        93 914 310 1160 381 173 50 792 207 985 250 245 54 503 104 725 140 105 17
        204 35 220 40 38 12 266 26 735 45 201 8 570 26 820 40 250 14 484 26 520 28
        82 5 148 -1 180 -16z" />
                <path d="M17622 17565 c0 -16 2 -22 5 -12 2 9 2 23 0 30 -3 6 -5 -1 -5 -18z" />
            </g>
        </symbol>

    </defs>
</svg>