<svg style="position: absolute; width: 0; height: 0; overflow: hidden;"
  xmlns="http://www.w3.org/2000/svg" xmlns:xlink="http://www.w3.org/1999/xlink" version="1.1">
  <defs>

    <symbol id="info">
        <g transform="translate(0.000000,512.000000) scale(0.100000,-0.100000)">
        <path d="M2315 5109 c-1134 -106 -2073 -968 -2274 -2089 -65 -357 -49 -765 43
        -1113 274 -1043 1171 -1800 2246 -1897 1410 -126 2653 911 2780 2320 88 985
        -394 1928 -1242 2432 -466 276 -1009 398 -1553 347z m510 -390 c140 -15 278
        -46 422 -94 799 -266 1368 -961 1473 -1800 15 -116 15 -414 0 -530 -61 -484
        -279 -934 -620 -1275 -341 -341 -791 -559 -1275 -620 -116 -15 -414 -15 -530
        0 -484 61 -934 279 -1275 620 -341 341 -559 791 -620 1275 -15 116 -15 414 0
        530 72 574 379 1117 820 1452 476 361 1008 507 1605 442z"/>
        <path d="M2501 3804 c-116 -31 -226 -117 -279 -217 -23 -45 -27 -63 -27 -142
        0 -73 4 -98 22 -130 81 -151 300 -189 501 -88 67 34 152 115 182 173 31 61 38
        159 16 234 -23 78 -91 148 -167 170 -65 20 -176 20 -248 0z"/>
        <path d="M2805 2888 c-83 -16 -161 -20 -467 -25 l-368 -5 0 -74 0 -74 110 0
        110 0 0 -605 0 -605 -110 0 -110 0 0 -100 0 -100 590 0 590 0 0 100 0 100
        -110 0 -110 0 0 705 c0 558 -3 705 -12 704 -7 -1 -58 -10 -113 -21z"/>
        </g>
    </symbol>

  </defs>
</svg>