<svg  xmlns:xsi="http://www.w3.org/2001/XMLSchema-instance"
  style="position: absolute; width: 0; height: 0; overflow: hidden;"
    xmlns="http://www.w3.org/2000/svg" xmlns:xlink="http://www.w3.org/1999/xlink" version="1.1">
    <defs>

        <symbol id="breadcrumbs">
            <g transform="translate(0.000000,512.000000) scale(0.100000,-0.100000)"
                fill="#000000" stroke="none">
                <path d="M51 3846 c-45 -25 -63 -84 -40 -129 6 -12 266 -277 578 -589 l566
-568 -566 -567 c-312 -313 -572 -578 -578 -590 -23 -46 -2 -110 44 -131 20 -9
277 -12 1049 -12 l1023 0 39 29 c21 16 305 296 631 622 397 399 594 603 598
622 4 15 4 39 0 55 -4 18 -201 222 -598 621 -326 326 -610 606 -631 622 l-39
29 -1026 0 c-832 -1 -1031 -3 -1050 -14z m2554 -736 l550 -550 -550 -550 -550
-550 -855 0 -855 0 522 523 c350 350 524 531 528 550 4 15 4 39 0 55 -4 18
-178 199 -528 550 l-522 522 855 0 855 0 550 -550z" />
                <path d="M2678 3831 c-27 -24 -33 -36 -33 -70 0 -41 1 -42 580 -621 l580 -580
-580 -580 c-579 -579 -580 -580 -580 -621 0 -34 6 -46 33 -70 l32 -29 566 0
c471 0 569 2 592 14 48 26 1240 1228 1247 1259 4 15 4 39 0 55 -7 30 -1199
1232 -1247 1258 -23 12 -121 14 -592 14 l-566 0 -32 -29z" />
            </g>
        </symbol>

    </defs>
</svg>