<svg style="position: absolute; width: 0; height: 0; overflow: hidden;"
    xmlns="http://www.w3.org/2000/svg" xmlns:xlink="http://www.w3.org/1999/xlink" version="1.1">
    <defs>

        <symbol id="fascinating-doc">
            <g transform="translate(0.000000,163.000000) scale(0.100000,-0.100000)"
stroke="none">
<path d="M3565 1554 c-82 -42 -156 -83 -162 -92 -15 -19 -18 -228 -4 -237 6
-3 81 32 168 78 l158 83 3 122 c1 67 -1 122 -5 121 -4 0 -75 -34 -158 -75z"/>
<path d="M6505 1554 c-82 -42 -156 -83 -162 -92 -15 -19 -18 -228 -4 -237 6
-3 81 32 168 78 l158 83 3 122 c1 67 -1 122 -5 121 -4 0 -75 -34 -158 -75z"/>
<path d="M5 1548 c-3 -7 -4 -357 -3 -778 l3 -765 135 0 135 0 3 307 2 306 168
87 c92 48 173 92 179 97 18 14 18 308 1 308 -6 0 -85 -38 -176 -85 -90 -47
-166 -85 -168 -85 -2 0 -4 77 -4 170 l0 170 168 0 c92 0 173 4 180 8 9 7 12
41 10 138 l-3 129 -313 3 c-245 2 -314 0 -317 -10z"/>
<path d="M6802 783 l3 -778 135 0 135 0 3 638 2 637 75 0 75 0 0 -628 c0 -475
3 -631 12 -640 8 -8 54 -12 139 -12 106 0 128 3 133 16 3 9 6 331 6 717 0 688
0 701 -21 743 -34 72 -65 84 -213 84 -91 0 -137 -4 -163 -15 -33 -14 -38 -14
-45 0 -7 12 -33 15 -144 15 l-134 0 2 -777z"/>
<path d="M7760 1553 c-24 -9 -61 -45 -76 -75 -12 -22 -14 -141 -14 -699 0
-665 0 -672 21 -706 12 -18 39 -43 61 -54 37 -19 55 -20 288 -17 235 3 250 4
277 24 15 12 37 36 48 55 19 32 20 55 23 442 3 359 1 412 -13 433 -8 13 -21
24 -28 24 -20 0 -311 -150 -324 -168 -14 -17 -19 -225 -7 -256 4 -11 19 -16
45 -16 l39 0 0 -130 0 -130 -75 0 -75 0 0 500 0 500 75 0 75 0 0 -129 c0 -71
3 -136 6 -145 10 -26 41 -19 155 40 105 53 109 57 120 97 7 25 10 96 7 177 -4
146 -13 175 -66 215 -25 19 -44 20 -287 22 -143 1 -267 -1 -275 -4z"/>
<path d="M9282 783 l3 -778 307 0 c294 0 308 1 334 21 15 11 37 33 48 48 21
27 21 39 24 692 2 641 2 667 -17 709 -12 27 -33 52 -53 65 -31 19 -49 20 -341
20 l-307 0 2 -777z m436 0 l-3 -498 -77 -3 -78 -3 0 501 0 500 80 0 80 0 -2
-497z"/>
<path d="M5865 1473 c-60 -30 -118 -62 -127 -71 -16 -13 -18 -38 -18 -233 l0
-219 -82 -41 c-124 -61 -118 -52 -118 -191 0 -73 4 -118 10 -118 6 0 51 20
100 45 l90 45 0 -286 c0 -273 1 -288 21 -324 12 -21 38 -47 59 -59 36 -20 50
-21 237 -19 l198 3 0 110 0 110 -117 3 -118 3 0 302 0 302 118 60 117 60 3
114 c1 63 0 121 -3 129 -4 10 -31 0 -112 -42 -58 -31 -110 -56 -115 -56 -4 0
-9 95 -10 212 -2 130 -7 212 -13 214 -5 2 -59 -22 -120 -53z"/>
<path d="M902 1203 c-35 -7 -89 -64 -101 -108 -14 -49 -14 -215 -1 -249 14
-37 36 -33 151 24 72 36 105 59 117 80 16 29 20 30 90 30 l72 0 0 -79 0 -79
-211 -109 c-163 -84 -213 -114 -221 -133 -5 -14 -8 -120 -6 -245 3 -199 5
-223 23 -254 39 -66 63 -76 194 -79 97 -3 125 0 168 16 50 19 51 19 56 0 5
-17 15 -18 139 -16 l133 3 3 549 2 550 -22 33 c-13 18 -41 42 -64 53 -37 18
-60 20 -270 19 -126 -1 -239 -4 -252 -6z m328 -808 l0 -165 -75 0 -75 0 0 130
0 131 72 34 c40 19 74 35 75 35 2 0 3 -74 3 -165z"/>
<path d="M1772 1203 c-35 -7 -98 -75 -105 -113 -9 -42 -9 -775 -1 -783 4 -4
100 41 214 98 113 58 210 105 213 105 4 0 7 -63 7 -140 l0 -140 -75 0 -75 0 0
34 c0 47 -16 86 -35 86 -25 0 -208 -96 -230 -120 -28 -31 -28 -118 1 -156 51
-69 51 -69 322 -72 285 -3 305 1 348 73 l24 42 0 396 c0 219 -2 397 -5 397 -3
0 -100 -47 -215 -105 l-210 -105 0 140 0 141 73 -3 72 -3 3 -58 c2 -37 8 -60
16 -63 20 -8 231 101 250 128 24 34 21 108 -6 148 -51 75 -52 75 -321 76 -133
1 -252 0 -265 -3z"/>
<path d="M2625 1196 c-41 -18 -83 -69 -90 -109 -3 -18 -5 -247 -3 -509 3 -463
4 -477 24 -504 11 -15 33 -37 48 -48 26 -20 40 -21 286 -21 247 0 260 1 287
21 15 11 38 36 51 54 21 31 22 43 22 205 0 223 5 219 -139 145 -123 -64 -141
-79 -141 -120 l0 -31 -77 3 -78 3 -3 318 -2 317 80 0 80 0 0 -55 c0 -30 4 -55
9 -55 16 0 234 109 254 128 27 24 21 158 -9 198 -51 69 -51 69 -322 71 -190 2
-254 0 -277 -11z"/>
<path d="M3557 1149 c-88 -44 -120 -66 -127 -85 -15 -39 -13 -1037 2 -1052 17
-17 249 -17 266 0 9 9 12 154 12 589 0 318 -3 584 -6 593 -3 9 -11 16 -18 15
-6 0 -64 -27 -129 -60z"/>
<path d="M3865 1198 c-3 -7 -4 -278 -3 -603 l3 -590 135 0 135 0 3 483 2 482
75 0 75 0 0 -466 c0 -302 4 -472 10 -485 10 -17 22 -19 140 -19 126 0 130 1
135 22 3 13 4 261 3 553 -3 589 1 556 -72 608 -27 19 -47 22 -141 25 -105 4
-132 -1 -206 -32 -11 -5 -18 -1 -22 13 -5 20 -12 21 -136 21 -96 0 -133 -3
-136 -12z"/>
<path d="M4813 1189 c-74 -37 -84 -65 -81 -226 3 -133 4 -138 25 -141 11 -2
71 22 132 52 87 44 112 61 117 81 6 24 10 25 80 25 l74 0 0 -79 0 -80 -215
-111 -215 -111 0 -246 c0 -232 1 -248 21 -280 12 -18 39 -43 62 -54 35 -19 54
-21 161 -17 87 3 130 8 152 20 29 16 31 16 42 -3 11 -17 25 -19 136 -19 94 0
126 3 135 14 9 10 11 153 9 548 -3 591 -1 570 -70 620 -32 22 -40 23 -278 26
-233 3 -247 2 -287 -19z m347 -794 l0 -165 -75 0 -75 0 0 130 0 130 73 34 c39
19 73 35 75 35 1 1 2 -73 2 -164z"/>
<path d="M6497 1149 c-88 -44 -120 -66 -127 -85 -15 -39 -13 -1037 2 -1052 17
-17 249 -17 266 0 9 9 12 154 12 589 0 318 -3 584 -6 593 -3 9 -11 16 -18 15
-6 0 -64 -27 -129 -60z"/>
<path d="M10235 1190 c-22 -11 -49 -33 -60 -48 -19 -26 -20 -45 -23 -527 -3
-564 -5 -547 74 -593 38 -22 45 -22 291 -20 238 3 253 4 280 24 15 12 37 36
48 55 19 33 20 55 23 509 3 533 3 535 -66 588 l-35 27 -246 3 c-232 3 -248 1
-286 -18z m345 -585 l0 -375 -75 0 -75 0 0 375 0 375 75 0 75 0 0 -375z"/>
<path d="M11104 1191 c-23 -11 -50 -34 -62 -53 -22 -35 -22 -41 -22 -535 l0
-500 23 -34 c43 -65 63 -69 332 -69 269 0 289 4 332 69 22 32 23 43 23 218 0
147 -3 185 -14 189 -14 5 -208 -87 -238 -113 -10 -9 -20 -31 -24 -49 l-6 -34
-74 0 -74 0 0 320 0 320 75 0 75 0 0 -50 c0 -34 5 -52 14 -56 8 -3 70 23 138
58 l123 63 3 83 c2 70 0 89 -18 117 -42 68 -48 70 -320 73 -223 2 -249 1 -286
-17z"/>
</g>
        </symbol>

    </defs>
</svg>