<svg style="position: absolute; width: 0; height: 0; overflow: hidden;"
    xmlns="http://www.w3.org/2000/svg" xmlns:xlink="http://www.w3.org/1999/xlink" version="1.1">
    <defs>

        <symbol id="heart">
            <g transform="translate(0.000000,1024.000000) scale(0.100000,-0.100000)"
                >
                <path d="M2450 9744 c-14 -2 -65 -9 -115 -15 -215 -26 -460 -91 -675 -179
-879 -360 -1500 -1165 -1637 -2125 -21 -143 -23 -560 -4 -695 59 -418 191
-814 426 -1280 334 -659 836 -1351 1559 -2150 194 -214 905 -925 1156 -1156
385 -354 743 -666 1123 -976 391 -320 816 -648 839 -648 25 0 620 466 1003
785 910 759 1789 1611 2416 2340 1124 1309 1699 2459 1699 3400 0 998 -564
1922 -1455 2381 -403 208 -775 298 -1235 298 -460 0 -839 -92 -1246 -303 -476
-247 -888 -655 -1124 -1114 -30 -59 -57 -107 -60 -107 -3 0 -31 52 -63 115
-152 300 -412 618 -691 845 -354 287 -811 487 -1292 566 -94 15 -560 29 -624
18z" />
            </g>
        </symbol>

    </defs>
</svg>