<svg style="position: absolute; width: 0; height: 0; overflow: hidden;"
    xmlns="http://www.w3.org/2000/svg" xmlns:xlink="http://www.w3.org/1999/xlink" version="1.1">
    <defs>

        <symbol id="navigation">

            <g transform="translate(0.000000,640.000000) scale(0.100000,-0.100000)">
                <path d="M2890 5594 c-551 -77 -1014 -307 -1400 -694 -380 -380 -595 -808
-687 -1365 -25 -153 -25 -532 1 -693 41 -264 108 -477 226 -718 148 -305 340
-553 595 -772 337 -289 764 -487 1205 -557 159 -26 504 -31 660 -11 557 73
1037 305 1420 686 880 874 958 2273 181 3240 -372 463 -886 763 -1488 871
-157 28 -554 36 -713 13z m582 -300 c722 -93 1334 -538 1649 -1199 134 -283
189 -517 196 -848 9 -383 -50 -662 -208 -985 -275 -560 -764 -963 -1362 -1122
-315 -83 -658 -92 -982 -25 -783 163 -1419 771 -1615 1545 -103 408 -89 808
43 1203 105 312 256 560 486 800 346 358 812 586 1311 640 98 11 369 6 482 -9z" />
                <path d="M4200 4360 c-25 -10 -225 -87 -445 -170 -220 -84 -492 -187 -605
-230 -290 -110 -1201 -455 -1475 -558 -253 -95 -285 -114 -285 -175 0 -46 40
-95 83 -101 28 -5 519 -31 1257 -67 113 -5 232 -12 266 -15 l61 -5 7 -167 c4
-92 11 -237 16 -322 5 -85 14 -254 20 -375 6 -121 17 -337 25 -480 l13 -260
31 -27 c37 -33 97 -38 130 -10 14 11 52 100 107 247 128 346 309 834 434 1170
62 165 149 401 195 525 45 124 140 380 210 570 70 190 127 358 127 373 -1 55
-49 99 -105 96 -12 -1 -42 -9 -67 -19z" />
            </g>


        </symbol>

    </defs>
</svg>