<svg style="position: absolute; width: 0; height: 0; overflow: hidden;"
    xmlns="http://www.w3.org/2000/svg" xmlns:xlink="http://www.w3.org/1999/xlink" version="1.1">
    <defs>

        <symbol id="npm">
            <g transform="translate(0.000000,432.000000) scale(0.100000,-0.100000)">
                <path d="M88 3477 c-25 -34 -51 -81 -57 -103 -25 -95 -31 -381 -31 -1599 l0
-1270 83 -83 82 -82 1131 0 1131 0 6 -59 c7 -81 36 -141 103 -211 l57 -60 652
0 c654 0 865 8 962 35 97 28 128 74 154 228 l11 67 1997 0 1996 0 83 83 82 82
0 1270 c0 1218 -6 1504 -31 1599 -6 22 -32 69 -57 103 l-47 63 -4130 0 -4130
0 -47 -63z m2342 -1537 l0 -1070 -250 0 -250 0 0 588 c0 605 -9 833 -35 913
-20 59 -78 127 -129 150 -94 43 -196 14 -304 -86 l-62 -57 0 -754 0 -754 -435
0 -435 0 0 1070 0 1070 950 0 950 0 0 -1070z m2440 0 l0 -1070 -322 0 c-424 0
-554 -16 -636 -77 -48 -36 -62 -62 -75 -145 -18 -108 8 -102 -474 -106 l-403
-4 0 1236 0 1236 955 0 955 0 0 -1070z m3130 0 l0 -1070 -248 0 -249 0 -6 653
c-8 821 -14 868 -116 960 -94 85 -234 69 -368 -41 l-43 -34 0 -769 0 -769
-270 0 -270 0 0 768 0 767 -55 43 c-71 56 -150 92 -200 92 -79 -1 -184 -70
-225 -151 -31 -60 -39 -201 -46 -876 l-7 -643 -249 0 -248 0 0 1070 0 1070
1300 0 1300 0 0 -1070z" />
                <path d="M4003 2516 c-66 -31 -138 -102 -153 -152 -16 -53 -25 -609 -12 -740
11 -113 27 -151 80 -201 58 -54 103 -73 173 -73 79 0 135 26 189 87 67 76 72
108 77 438 6 411 -12 520 -104 607 -65 62 -161 75 -250 34z" />
            </g>
        </symbol>

    </defs>
</svg>