<svg style="position: absolute; width: 0; height: 0; overflow: hidden;"
    xmlns="http://www.w3.org/2000/svg" xmlns:xlink="http://www.w3.org/1999/xlink" version="1.1">
    <defs>

        <symbol id="radio">
            <g transform="translate(0.000000,802.000000) scale(0.100000,-0.100000)">
                <path d="M1185 7089 c-157 -10 -272 -45 -412 -126 -200 -116 -341 -295 -418
        -533 -37 -113 -46 -313 -20 -441 89 -440 464 -750 908 -749 242 0 466 91 639
        258 134 129 213 261 260 434 20 71 23 106 22 238 -1 138 -4 165 -28 245 -115
        384 -424 638 -821 677 -16 2 -75 0 -130 -3z m237 -397 c221 -74 377 -294 378
        -532 0 -267 -211 -507 -477 -543 -183 -24 -338 28 -467 156 -114 114 -166 238
        -166 397 0 259 185 484 445 540 63 14 223 4 287 -18z" />
                <path d="M1172 6530 c-108 -23 -209 -105 -263 -215 -29 -60 -33 -77 -33 -150
        0 -73 4 -90 33 -150 43 -87 105 -148 189 -188 57 -27 78 -31 148 -31 72 0 89
        4 149 33 87 43 148 105 188 189 27 57 31 78 31 147 0 69 -4 90 -31 147 -74
        159 -250 252 -411 218z" />
                <path d="M3024 6331 c-60 -27 -96 -80 -102 -146 -2 -30 -2 -65 2 -79 9 -37 56
        -87 101 -107 38 -18 115 -19 1838 -19 1600 0 1802 2 1835 15 75 32 112 86 112
        164 0 85 -30 135 -102 172 -36 18 -87 19 -1840 19 -1739 0 -1804 -1 -1844 -19z" />
                <path d="M1118 4855 c-154 -25 -264 -66 -380 -141 -165 -107 -290 -263 -363
        -454 -41 -108 -54 -181 -55 -309 0 -135 12 -214 51 -323 151 -429 585 -681
        1035 -603 431 76 764 466 764 896 0 359 -186 675 -492 834 -181 94 -379 130
        -560 100z m265 -381 c234 -60 400 -264 414 -509 21 -348 -286 -627 -635 -576
        -95 14 -218 71 -290 136 -184 166 -235 449 -120 669 41 78 156 195 228 231
        122 63 277 82 403 49z" />
                <path d="M3015 4101 c-39 -23 -83 -75 -91 -107 -4 -14 -4 -49 -2 -79 5 -61 39
        -114 91 -143 30 -16 140 -17 1832 -20 1231 -2 1811 0 1836 8 133 38 175 217
        73 312 -16 15 -42 32 -57 37 -20 8 -584 11 -1840 11 -1747 0 -1813 -1 -1842
        -19z" />
            </g>
        </symbol>

    </defs>
</svg>