<svg style="position: absolute; width: 0; height: 0; overflow: hidden;"
    xmlns="http://www.w3.org/2000/svg" xmlns:xlink="http://www.w3.org/1999/xlink" version="1.1">
    <defs>

        <symbol id="star">
            <g transform="translate(0.000000,573.000000) scale(0.100000,-0.100000)">
<path d="M4103 5296 c-57 -18 -105 -50 -144 -94 -19 -22 -164 -302 -350 -677
l-317 -641 -678 -98 c-374 -54 -703 -104 -733 -112 -66 -19 -117 -50 -160
-100 -56 -63 -76 -118 -76 -209 0 -71 4 -88 32 -145 28 -57 69 -101 330 -354
164 -160 394 -384 512 -499 l213 -210 -117 -681 c-65 -374 -118 -710 -118
-746 -1 -117 72 -234 179 -286 71 -35 164 -43 234 -20 28 9 259 126 513 260
254 134 533 280 620 325 l158 83 619 -326 c341 -179 645 -333 677 -342 151
-44 312 32 378 180 38 84 39 124 6 316 -17 96 -72 414 -122 706 l-90 530 208
205 c114 113 344 338 510 499 357 347 368 362 367 500 0 65 -5 96 -21 131 -43
94 -119 157 -220 184 -32 8 -359 58 -728 111 -368 53 -673 99 -677 103 -4 3
-144 285 -312 626 -169 341 -319 639 -336 662 -76 109 -227 159 -357 119z
m493 -1851 c37 -79 113 -142 205 -171 20 -6 235 -40 478 -75 242 -35 441 -66
441 -70 0 -3 -151 -153 -334 -333 -275 -268 -340 -336 -360 -380 -47 -99 -46
-118 40 -613 43 -249 75 -455 72 -458 -2 -3 -164 79 -359 181 -489 258 -487
257 -580 258 -72 0 -80 -3 -200 -62 -68 -33 -261 -133 -428 -221 -168 -88
-307 -158 -309 -156 -5 5 -2 22 93 580 42 243 55 343 51 381 -13 113 -22 124
-389 486 -188 185 -340 338 -337 341 3 2 201 32 440 66 239 34 453 68 475 74
60 17 120 54 155 94 17 19 124 220 237 447 113 226 207 415 210 419 4 6 296
-572 399 -788z"/>
</g>
        </symbol>

    </defs>
</svg>