<svg style="position: absolute; width: 0; height: 0; overflow: hidden;"
    xmlns="http://www.w3.org/2000/svg" xmlns:xlink="http://www.w3.org/1999/xlink" version="1.1">
    <defs>

        <symbol id="tabs">

            <g id="tab_svg" transform="translate(0.000000,621.000000) scale(0.100000,-0.100000)">
            <path d="M2563 5786 c-102 -33 -185 -105 -232 -205 l-26 -56 -3 -642 -3 -641
            -162 -4 c-160 -3 -164 -3 -228 -35 -79 -39 -140 -102 -177 -181 l-27 -57 0
            -1645 0 -1645 32 -66 c39 -79 102 -140 181 -177 l57 -27 2125 0 2125 0 57 27
            c79 37 142 98 181 177 l32 66 3 641 3 642 162 4 c160 3 164 3 228 35 79 39
            140 102 177 181 l27 57 0 1645 0 1645 -32 66 c-39 79 -102 140 -181 177 l-57
            27 -2110 2 c-1725 1 -2118 -1 -2152 -11z m4177 -586 l0 -240 -2040 0 -2040 0
            0 240 0 240 2040 0 2040 0 0 -240z m0 -1740 l0 -1140 -120 0 -120 0 -2 823 -3
            822 -32 66 c-39 79 -102 140 -181 177 l-57 27 -1782 3 -1783 2 0 180 0 180
            2040 0 2040 0 0 -1140z m-600 180 l0 -240 -2040 0 -2040 0 0 240 0 240 2040 0
            2040 0 0 -240z m0 -1740 l0 -1140 -2040 0 -2040 0 0 1140 0 1140 2040 0 2040
            0 0 -1140z"/>
            <path d="M2854 5310 c-11 -4 -33 -23 -48 -41 -38 -45 -33 -107 13 -153 l31
            -31 1100 0 1100 0 31 31 c57 58 47 147 -21 188 -26 15 -125 16 -1107 15 -593
            0 -1087 -4 -1099 -9z"/>
            <path d="M5604 5305 c-75 -39 -84 -133 -18 -194 33 -30 41 -33 81 -28 68 7
            108 51 108 117 0 42 -5 54 -31 81 -38 37 -94 47 -140 24z"/>
            <path d="M6024 5305 c-75 -39 -84 -133 -18 -194 33 -30 41 -33 81 -28 68 7
            108 51 108 117 0 42 -5 54 -31 81 -38 37 -94 47 -140 24z"/>
            <path d="M6454 5311 c-11 -5 -33 -24 -48 -42 -24 -28 -27 -39 -23 -78 4 -36
            13 -52 42 -79 34 -31 42 -34 82 -29 62 7 103 48 110 110 5 40 2 48 -28 81 -36
            40 -93 55 -135 37z"/>
            <path d="M2238 3743 c-33 -21 -58 -69 -58 -112 0 -22 11 -43 34 -69 l34 -37
            1101 0 1101 0 32 33 c28 28 33 39 33 82 0 43 -5 54 -33 82 l-32 33 -1093 2
            c-1015 2 -1094 1 -1119 -14z"/>
            <path d="M4984 3727 c-29 -26 -37 -42 -41 -79 -5 -42 -2 -49 30 -84 32 -35 40
            -39 86 -39 67 0 111 40 118 109 5 43 3 48 -35 86 -33 34 -46 40 -81 40 -33 0
            -49 -7 -77 -33z"/>
            <path d="M5404 3727 c-29 -26 -37 -42 -41 -79 -5 -42 -2 -49 30 -84 32 -35 40
            -39 86 -39 67 0 111 40 118 109 5 43 3 48 -35 86 -33 34 -46 40 -81 40 -33 0
            -49 -7 -77 -33z"/>
            <path d="M5838 3742 c-33 -20 -58 -68 -58 -111 0 -22 11 -43 34 -69 31 -33 39
            -37 85 -37 44 0 55 4 83 33 29 28 33 39 33 83 0 46 -4 54 -37 85 -43 39 -94
            45 -140 16z"/>
            </g>

        </symbol>

    </defs>
</svg>