<svg style="position: absolute; width: 0; height: 0; overflow: hidden; margin-top:2px"
    xmlns="http://www.w3.org/2000/svg" xmlns:xlink="http://www.w3.org/1999/xlink" version="1.1">
    <defs>

        <symbol id="textarea">
            <g transform="translate(0.000000,512.000000) scale(0.100000,-0.100000)">
                <path d="M650 4785 c-337 -68 -587 -328 -639 -665 -9 -56 -11 -466 -9 -1585 4
-1700 -4 -1542 83 -1720 95 -196 251 -332 470 -408 l90 -32 1915 0 1915 0 95
33 c216 75 377 218 471 417 80 171 74 21 74 1755 0 1412 -1 1550 -17 1605 -60
216 -171 372 -345 485 -73 48 -133 75 -243 108 -50 16 -208 17 -1925 19 -1515
1 -1882 -1 -1935 -12z m3783 -320 c173 -45 307 -178 352 -350 13 -52 15 -241
15 -1527 0 -1029 -3 -1483 -11 -1520 -34 -166 -164 -308 -328 -358 -62 -20
-103 -20 -1901 -20 -1798 0 -1839 0 -1901 20 -164 50 -294 192 -328 358 -8 37
-11 491 -11 1520 0 1269 2 1476 15 1525 45 171 177 306 346 351 83 22 3667 23
3752 1z" />
                <path d="M4106 2435 c-31 -11 -153 -127 -534 -507 -288 -288 -502 -509 -514
-532 -52 -100 26 -226 139 -226 24 0 56 6 71 14 42 23 1030 1017 1042 1049 16
44 12 88 -13 131 -38 68 -118 98 -191 71z" />
                <path d="M4106 1635 c-48 -17 -218 -182 -248 -239 -51 -100 26 -226 139 -226
62 0 84 15 200 132 131 132 148 178 100 262 -38 68 -118 98 -191 71z" />
            </g>

        </symbol>

    </defs>
</svg>