<svg style="position: absolute; width: 0; height: 0; overflow: hidden;"
    xmlns="http://www.w3.org/2000/svg" xmlns:xlink="http://www.w3.org/1999/xlink" version="1.1">
    <defs>

        <symbol id="toggle-three-state">
            <g transform="translate(0.000000,238.000000) scale(0.100000,-0.100000)">
            <path d="M840 1870 c-54 -4 -94 -12 -110 -22 -14 -9 -46 -20 -73 -23 -26 -4
            -57 -15 -70 -25 -12 -9 -33 -21 -47 -25 -14 -4 -32 -13 -40 -20 -8 -7 -31 -20
            -50 -30 -46 -23 -50 -27 -157 -134 -51 -51 -102 -112 -113 -134 -11 -23 -35
            -70 -54 -104 -19 -35 -38 -80 -42 -100 -4 -21 -15 -58 -26 -82 -18 -39 -20
            -67 -20 -206 0 -139 2 -167 20 -206 11 -24 22 -61 26 -82 4 -20 22 -65 41
            -100 19 -34 47 -84 61 -112 34 -64 195 -225 259 -259 28 -14 57 -30 65 -35 46
            -28 122 -60 156 -67 21 -4 55 -15 75 -26 34 -18 98 -18 1719 -18 1621 0 1685
            0 1719 18 20 11 53 22 73 26 38 7 149 57 228 104 58 33 219 194 252 252 47 79
            99 194 109 238 5 24 17 54 25 68 14 20 17 55 17 197 0 157 -2 176 -22 212 -11
            22 -21 49 -21 60 0 23 -50 132 -100 220 -44 77 -198 231 -275 275 -95 54 -172
            88 -212 96 -21 4 -54 15 -74 26 -34 17 -99 18 -1645 21 -885 1 -1647 0 -1694
            -3z m1413 -157 c29 -8 14 -27 -29 -36 -21 -5 -61 -19 -89 -32 -27 -13 -63 -29
            -78 -36 -48 -22 -234 -216 -248 -257 -6 -20 -20 -49 -30 -63 -10 -14 -23 -47
            -29 -74 -6 -26 -18 -61 -27 -79 -24 -45 -24 -297 0 -342 9 -18 21 -53 27 -79
            6 -27 19 -60 30 -75 10 -14 21 -37 25 -51 8 -33 106 -147 180 -209 64 -55 159
            -105 233 -124 49 -12 64 -29 35 -40 -29 -11 -1423 -7 -1465 5 -20 5 -40 14
            -43 19 -3 5 -27 12 -53 15 -26 4 -63 17 -82 29 -19 12 -42 26 -51 31 -110 68
            -196 154 -264 264 -5 9 -19 32 -31 51 -12 19 -25 55 -29 80 -4 24 -15 56 -24
            69 -24 37 -24 335 0 372 9 13 20 45 24 69 4 25 17 61 29 80 12 19 26 42 31 51
            68 110 154 196 264 264 9 5 32 19 51 31 19 12 54 25 78 28 24 4 55 14 70 24
            24 16 85 17 717 22 662 5 738 4 778 -7z m1527 5 c318 -3 359 -5 382 -20 15
            -10 46 -20 70 -24 24 -3 59 -16 78 -28 19 -12 42 -26 51 -31 113 -69 195 -151
            264 -264 5 -9 19 -32 32 -51 12 -19 25 -53 29 -75 4 -21 16 -59 27 -83 28 -65
            28 -289 0 -354 -11 -24 -23 -62 -27 -83 -4 -22 -17 -56 -29 -75 -13 -19 -27
            -42 -32 -51 -69 -113 -151 -195 -264 -264 -9 -5 -32 -19 -51 -31 -19 -12 -56
            -25 -82 -29 -26 -3 -50 -10 -53 -15 -3 -5 -23 -14 -43 -19 -42 -12 -1436 -16
            -1465 -5 -28 10 -14 28 29 37 21 5 60 20 85 33 26 13 53 24 60 24 41 0 279
            245 279 287 0 8 9 27 20 42 10 16 24 49 30 76 6 26 18 61 27 79 13 25 17 60
            17 171 0 111 -4 146 -17 171 -9 18 -21 53 -27 79 -6 27 -20 60 -30 76 -11 15
            -20 33 -20 41 0 7 -9 27 -20 45 -26 44 -204 217 -238 232 -15 7 -49 23 -77 36
            -27 13 -67 27 -87 30 -36 6 -56 20 -44 32 14 15 101 18 425 16 190 -2 506 -4
            701 -5z"/>
            </g>
        </symbol>

    </defs>
</svg>