<svg style="position: absolute; width: 0; height: 0; overflow: hidden;"
  xmlns="http://www.w3.org/2000/svg" xmlns:xlink="http://www.w3.org/1999/xlink" version="1.1">
  <defs>

    <symbol id="redo">
      <path d="M18.4 10.6C16.55 8.99 14.15 8 11.5 8c-4.65 0-8.58 3.03-9.96 7.22L3.9 16c1.05-3.19 4.05-5.5 7.6-5.5 1.95 0 3.73.72 5.12 1.88L13 16h9V7l-3.6 3.6z" />
    </symbol>
    <symbol id="cancel">
      <path d="M12 2C6.47 2 2 6.47 2 12s4.47 10 10 10 10-4.47 10-10S17.53 2 12 2zm5 13.59L15.59 17 12 13.41 8.41 17 7 15.59 10.59 12 7 8.41 8.41 7 12 10.59 15.59 7 17 8.41 13.41 12 17 15.59z" />
      <path d="M0 0h24v24H0z" fill="none" />
    </symbol>
    <symbol id="content-copy">
      <path d="M16 1H4c-1.1 0-2 .9-2 2v14h2V3h12V1zm3 4H8c-1.1 0-2 .9-2 2v14c0 1.1.9 2 2 2h11c1.1 0 2-.9 2-2V7c0-1.1-.9-2-2-2zm0 16H8V7h11v14z" />
    </symbol>
    <symbol id="content-cut">
      <path d="M9.64 7.64c.23-.5.36-1.05.36-1.64 0-2.21-1.79-4-4-4S2 3.79 2 6s1.79 4 4 4c.59 0 1.14-.13 1.64-.36L10 12l-2.36 2.36C7.14 14.13 6.59 14 6 14c-2.21 0-4 1.79-4 4s1.79 4 4 4 4-1.79 4-4c0-.59-.13-1.14-.36-1.64L12 14l7 7h3v-1L9.64 7.64zM6 8c-1.1 0-2-.89-2-2s.9-2 2-2 2 .89 2 2-.9 2-2 2zm0 12c-1.1 0-2-.89-2-2s.9-2 2-2 2 .89 2 2-.9 2-2 2zm6-7.5c-.28 0-.5-.22-.5-.5s.22-.5.5-.5.5.22.5.5-.22.5-.5.5zM19 3l-6 6 2 2 7-7V3z" />
    </symbol>
    <symbol id="content-paste">
      <path d="M19 2h-4.18C14.4.84 13.3 0 12 0c-1.3 0-2.4.84-2.82 2H5c-1.1 0-2 .9-2 2v16c0 1.1.9 2 2 2h14c1.1 0 2-.9 2-2V4c0-1.1-.9-2-2-2zm-7 0c.55 0 1 .45 1 1s-.45 1-1 1-1-.45-1-1 .45-1 1-1zm7 18H5V4h2v3h10V4h2v16z" />
    </symbol>
    <symbol id="cross">
      <path d="M198 3002 l-172 -173 614 -614 615 -615 -614 -614 -613 -613 173 -172 172 -173 614 614 613 613 615 -615 614 -614 173 172 172 173 -614 614 -615 615 614 614 614 614 -173 172 -172 173 -614 -614 -614 -614 -615 615 -614 614 -173 -172z" />
    </symbol>
    <symbol id="check-mark" >
        <path d="M4448 4209 c-106 -11 -196 -47 -288 -114 -31 -23 -367 -443 -1075
-1344 -566 -720 -1033 -1309 -1037 -1308 -3 1 -247 234 -542 517 -353 340
-555 527 -594 551 -352 212 -813 12 -898 -391 -39 -183 17 -389 144 -527 43
-47 1263 -1221 1463 -1408 132 -124 255 -175 421 -177 136 -1 254 36 359 113
31 22 465 544 1274 1529 675 822 1247 1516 1271 1542 65 70 118 158 145 240
35 107 34 273 -3 375 -97 272 -352 432 -640 402z" />
   
    </symbol>
  </defs>
</svg>