<?xml version="1.0" encoding="utf-8"?>
<svg xmlns="http://www.w3.org/2000/svg" version="1.1"  xmlns:xlink="http://www.w3.org/1999/xlink"  x="0px" y="0px" viewBox="0 0 64 64">
    <defs>
        <!-- 
    COLOR
    fill lime -> #b3b3b3;
    -->
        <style>
      g        { display: none;   }
      g:target { display: inline; }
	 
    </style>
        <svg xmlns="http://www.w3.org/2000/svg" viewBox="0 0 64 64" id="add">
            <use href="#add_bg" x="0" y="0"/>
        </svg>
        <svg viewBox="0 0 64 64" id="calendar">
            <use href="#calendar_bg" x="0" y="0"/>
        </svg>
        <svg viewBox="0 0 64 64" id="checkbox">
            <use href="#checkbox_bg" x="0" y="0"/>
        </svg>
        <svg viewBox="0 0 64 64" id="checkbox_check">
            <use href="#checkbox_check_bg" x="0" y="0"/>
        </svg>
        <svg viewBox="0 0 64 64" id="circle">
            <use href="#circle_bg" x="0" y="0"/>
        </svg>
        <svg viewBox="0 0 64 64" id="close">
            <use href="#close_bg" x="0" y="0"/>
        </svg>
        <svg viewBox="0 0 64 64" id="danger">
            <use href="#danger_bg" x="0" y="0"/>
        </svg>
        <svg viewBox="0 0 64 64" id="drop_down">
            <use href="#drop_down_bg" x="0" y="0"/>
        </svg>
        <svg viewBox="0 0 64 64" id="drop_left">
            <use href="#drop_left_bg" x="0" y="0"/>
        </svg>
        <svg viewBox="0 0 64 64" id="drop_right">
            <use href="#drop_right_bg" x="0" y="0"/>
        </svg>
        <svg viewBox="0 0 64 64" id="drop_up">
            <use href="#drop_up_bg" x="0" y="0"/>
        </svg>
        <svg viewBox="0 0 64 64" id="info">
            <use href="#info_bg" x="0" y="0"/>
        </svg>
        <svg viewBox="0 0 64 64" id="notify">
            <use href="#notify_bg" x="0" y="0"/>
        </svg>
        <svg viewBox="0 0 64 64" id="radio">
            <use href="#radio_bg" x="0" y="0"/>
        </svg>
        <svg viewBox="0 0 64 64" id="radio_check">
            <use href="#radio_check_bg" x="0" y="0"/>
        </svg>
        <svg viewBox="0 0 64 64" id="search">
            <use href="#search_bg" x="0" y="0"/>
        </svg>
        <svg viewBox="0 0 64 64" id="success">
            <use href="#success_bg" x="0" y="0"/>
        </svg>
        <svg viewBox="0 0 64 64" id="warning">
            <use href="#warning_bg" x="0" y="0"/>
        </svg>
        <svg viewBox="0 0 400 10" id="mice">
            <use href="#mice_bg" x="0" y="0"/>
        </svg>
        <svg viewBox="0 0 64 64" id="edit">
            <use href="#edit_bg" x="0" y="0"/>
        </svg>
        <svg viewBox="0 0 64 64" id="edit2">
            <use href="#edit2_bg" x="0" y="0"/>
        </svg>
        <svg viewBox="0 0 812 812"  id="caret-down"><use href="#caretd_svg" x="0" y="0"/></svg>
        <svg viewBox="0 0 1300 1300"  id="caret-left"><use href="#caretl_svg" x="0" y="0"/></svg>
    </defs>
    <!-- add -->
    <g viewBox="0 0 64 64" id="add_bg">
        <path d="M60,32A28,28,0,1,1,32,4,28,28,0,0,1,60,32Zm-3.8,0C56.2,18.08,45.92,7.8,32,7.8S7.8,18.08,7.8,32,18.08,56.2,32,56.2,56.2,45.92,56.2,32Z"/>
        <path d="M33.9,48.5H30.1V34.09l-14.6-.2v-3.8l14.6.2V15.5h3.8V30.29l14.6-.2v3.8l-14.6.2Z"/>
    </g>
    <!-- calendar -->
    <g viewBox="0 0 64 64" id="calendar_bg">
        <path d="M54.91,56H9.09A5.11,5.11,0,0,1,4,50.9V15.79A5.1,5.1,0,0,1,9.09,10.7h8.39V8h4.79v2.7H41.73V8h4.8v2.7h8.38A5.1,5.1,0,0,1,60,15.79V50.9A5.11,5.11,0,0,1,54.91,56ZM9.09,15.5a.29.29,0,0,0-.29.29V50.9a.3.3,0,0,0,.29.3H54.91a.3.3,0,0,0,.29-.3V15.8a.3.3,0,0,0-.29-.3H46.53v2.71h-4.8V15.5H22.27v2.71H17.48V15.5ZM54.61,26.3H9.39V21.5H54.61Z"/>
    </g>
    <!-- checkbox -->
    <g viewBox="0 0 64 64" id="checkbox_bg">
        <rect x="7" y="7" width="50" height="50" style="fill:#fff"/>
        <path d="M57,7V57H7V7H57m3-3H4V60H60V4Z"/>
    </g>
    <!-- checkbox_check -->
    <g viewBox="0 0 64 64" id="checkbox_check_bg">
        <rect x="7" y="7" width="50" height="50" style="fill:#fff"/>
        <path d="M57,7V57H7V7H57m3-3H4V60H60V4Z"/>
        <path d="M23.42,31.13l5.43,6.08,16.69-19.7a2.69,2.69,0,0,1,3.72-.37,2.53,2.53,0,0,1,.41,3.55l0,.06L32.72,40.84a4.8,4.8,0,0,1-6.77.59l-.39-.37-6-6.35A2.64,2.64,0,0,1,19.62,31l0,0a2.64,2.64,0,0,1,3.73.15Z"/>
    </g>
    <!-- circle -->
    <g viewBox="0 0 64 64" id="circle_bg">
        <path d="M60,32A28,28,0,1,1,32,4,28,28,0,0,1,60,32Zm-3.8,0C56.2,18.08,45.92,7.8,32,7.8S7.8,18.08,7.8,32,18.08,56.2,32,56.2,56.2,45.92,56.2,32Z"/>
    </g>
    <!-- close -->
    <g viewBox="0 0 64 64" id="close_bg">
        <path d="M60,32A28,28,0,1,1,32,4,28,28,0,0,1,60,32Zm-3.8,0C56.2,18.08,45.92,7.8,32,7.8S7.8,18.08,7.8,32,18.08,56.2,32,56.2,56.2,45.92,56.2,32Z"/>
        <path d="M45,42.32,42.32,45,32.14,34.82,21.67,45,19,42.32,29.45,32.14,19,21.68,21.68,19,32.14,29.45,42.32,19,45,21.67,34.82,32.14Z"/>
    </g>
    <!-- danger -->
    <g viewBox="0 0 64 64" id="danger_bg">
        <path d="M60,32A28,28,0,1,1,32,4,28,28,0,0,1,60,32Zm-3.8,0C56.2,18.08,45.92,7.8,32,7.8S7.8,18.08,7.8,32,18.08,56.2,32,56.2,56.2,45.92,56.2,32Z"/>
        <path d="M20.73,43.36l-.09-.09a1.93,1.93,0,0,1,0-2.74L29.17,32l-8.53-8.53a1.93,1.93,0,0,1,0-2.74h0a1.93,1.93,0,0,1,2.72,0L32,29.17l8.53-8.53a1.93,1.93,0,0,1,2.74,0l.09.09a1.93,1.93,0,0,1,0,2.74L34.83,32l8.53,8.53a1.93,1.93,0,0,1,0,2.74l-.09.09a1.93,1.93,0,0,1-2.74,0L32,34.83l-8.53,8.53A1.93,1.93,0,0,1,20.73,43.36Z"/>
    </g>
    <!-- drop_down -->
    <g viewBox="0 0 64 64" id="drop_down_bg">
        <path d="M32,48a3.88,3.88,0,0,1-2.77-1.15L5.15,22.71a3.93,3.93,0,0,1,5.55-5.56L32,38.51,53.3,17.15a3.93,3.93,0,1,1,5.55,5.56L34.77,46.85A3.88,3.88,0,0,1,32,48Z"/>
    </g>
    <!-- drop_left -->
    <g viewBox="0 0 64 64" id="drop_left_bg">
        <path d="M16,32a3.88,3.88,0,0,1,1.15-2.77L41.29,5.15a3.93,3.93,0,0,1,5.56,5.55L25.49,32,46.85,53.3a3.93,3.93,0,1,1-5.56,5.55L17.15,34.77A3.88,3.88,0,0,1,16,32Z"/>
    </g>
    <!-- drop_right -->
    <g viewBox="0 0 64 64" id="drop_right_bg">
        <path d="M48,32a3.88,3.88,0,0,1-1.15,2.77L22.71,58.85a3.93,3.93,0,1,1-5.56-5.55L38.51,32,17.15,10.7a3.93,3.93,0,0,1,5.56-5.55L46.85,29.23A3.88,3.88,0,0,1,48,32Z"/>
    </g>
    <!-- drop_up -->
    <g viewBox="0 0 64 64" id="drop_up_bg">
        <path d="M32,16a3.88,3.88,0,0,1,2.77,1.15L58.85,41.29a3.93,3.93,0,1,1-5.55,5.56L32,25.49,10.7,46.85a3.93,3.93,0,0,1-5.55-5.56L29.23,17.15A3.88,3.88,0,0,1,32,16Z"/>
    </g>
    <!-- info -->
    <g viewBox="0 0 64 64" id="info_bg">
        <path d="M60,32A28,28,0,1,1,32,4,28,28,0,0,1,60,32Zm-3.8,0C56.2,18.08,45.92,7.8,32,7.8S7.8,18.08,7.8,32,18.08,56.2,32,56.2,56.2,45.92,56.2,32Z"/>
        <path d="M32,48a2.61,2.61,0,0,0,2.5-2.71V26.74A2.61,2.61,0,0,0,32,24h0a2.61,2.61,0,0,0-2.5,2.71V45.32A2.61,2.61,0,0,0,32,48Z"/>
        <ellipse cx="32" cy="18.52" rx="2.5" ry="2.52"/>
    </g>
    <!-- notify -->
    <g viewBox="0 0 64 64" id="notify_bg">
        <path d="M32,60h0a9.18,9.18,0,0,1-9.21-9.1v-.67H10A5.91,5.91,0,0,1,4,44.5a5.79,5.79,0,0,1,1.65-4.18,5.92,5.92,0,0,1,4.14-1.79H10a.68.68,0,0,0,.67-.67v-13A21.2,21.2,0,0,1,32,4h.22A21.3,21.3,0,0,1,53.31,24.83v13a.67.67,0,0,0,.19.47.67.67,0,0,0,.48.2h.11A5.89,5.89,0,0,1,60,44.26a5.76,5.76,0,0,1-1.65,4.17,5.87,5.87,0,0,1-4.14,1.8h-13v.67A9.17,9.17,0,0,1,32,60ZM25.8,50.23v.65a6.19,6.19,0,0,0,12.37,0v-.65ZM10,41.54a2.87,2.87,0,0,0-2.89,2.84,2.82,2.82,0,0,0,.84,2,2.93,2.93,0,0,0,2,.83H54a2.84,2.84,0,1,0,0-5.67h0a3.7,3.7,0,0,1-3.71-3.68v-13a18.28,18.28,0,0,0-36.56,0v13A3.7,3.7,0,0,1,10,41.54Z"/>
    </g>
    <!-- radio -->
    <g viewBox="0 0 64 64" id="radio_bg">
        <circle cx="32" cy="32" r="25" style="fill:#fff"/>
        <path d="M32,4A28,28,0,1,1,4,32H4A28,28,0,0,1,32,4Zm0,3.21A24.79,24.79,0,1,0,56.79,32,24.79,24.79,0,0,0,32,7.21Z"/>
    </g>
    <!-- radio_check -->
    <g viewBox="0 0 64 64" id="radio_check_bg">
        <circle cx="32" cy="32" r="25" style="fill:#fff"/>
        <path d="M32,4A28,28,0,1,1,4,32H4A28,28,0,0,1,32,4Zm0,3.21A24.79,24.79,0,1,0,56.79,32,24.79,24.79,0,0,0,32,7.21Z"/>
        <circle cx="32" cy="32" r="12"/>
    </g>
    <!-- search -->
    <g viewBox="0 0 64 64" id="search_bg">
        <path d="M60,57.75,43.4,41.42A23.35,23.35,0,0,0,49,26.51,22.51,22.51,0,1,0,26.51,49,23.35,23.35,0,0,0,41.43,43.4L57.75,60ZM26.51,46.21a19.7,19.7,0,1,1,19.7-19.7A19.69,19.69,0,0,1,26.51,46.21Z"/>
    </g>
    <!-- success -->
    <g viewBox="0 0 64 64" id="success_bg">
        <path d="M60,32A28,28,0,1,1,32,4,28,28,0,0,1,60,32Zm-3.8,0C56.2,18.08,45.92,7.8,32,7.8S7.8,18.08,7.8,32,18.08,56.2,32,56.2,56.2,45.92,56.2,32Z"/>
        <path d="M43.72,21.47,27.27,38.12l-7-6a2.12,2.12,0,0,0-3,.28,2.1,2.1,0,0,0,.27,3L26,42.59a2.09,2.09,0,0,0,1.36.48,2.15,2.15,0,0,0,1.5-.61l17.81-18a2.11,2.11,0,0,0-3-3Z"/>
    </g>
    <!-- warning -->
    <g viewBox="0 0 64 64" id="warning_bg">
        <path d="M60,32A28,28,0,1,1,32,4,28,28,0,0,1,60,32Zm-3.8,0C56.2,18.08,45.92,7.8,32,7.8S7.8,18.08,7.8,32,18.08,56.2,32,56.2,56.2,45.92,56.2,32Z"/>
        <path d="M32,16a2.61,2.61,0,0,0-2.5,2.71V37.29A2.61,2.61,0,0,0,32,40h0a2.61,2.61,0,0,0,2.5-2.71V18.71A2.61,2.61,0,0,0,32,16Z"/>
        <ellipse cx="32" cy="45.52" rx="2.5" ry="2.52"/>
    </g>
    <!-- mice -->
    <g transform="translate(0.000000,200.000000) scale(0.100000,-0.100000)"
 id="mice_bg" viewBox="0 0 64 64">
        <path d="M1142 3510 c-444 -258 -824 -484 -845 -502 -35 -33 -37 -82 -37
            -1000 l0 -966 45 -50 c40 -44 556 -351 1357 -808 338 -193 333 -192 561 -63
            644 362 1471 847 1492 874 19 25 25 258 25 1005 l0 973 -45 41 c-25 22 -346
            214 -715 427 -368 212 -729 420 -802 462 -185 108 -145 123 -1036 -393z m1608
            -126 c374 -215 704 -405 734 -422 94 -55 96 -73 96 -990 0 -808 -2 -868 -36
            -898 -60 -55 -1510 -874 -1545 -874 -19 0 -334 172 -701 383 -368 211 -706
            405 -753 432 -47 27 -94 65 -105 86 -31 57 -25 1760 6 1800 25 32 327 212
            1064 633 472 270 465 266 520 252 22 -6 346 -187 720 -402z"/>
        <path d="M1314 3198 c-497 -290 -662 -396 -684 -439 -36 -69 -45 -1478 -10
            -1569 18 -47 121 -110 180 -110 15 0 21 200 20 645 -1 355 -1 652 -1 661 2 26
            119 -44 140 -85 13 -24 21 -277 21 -677 0 -580 3 -643 35 -680 57 -65 476
            -288 528 -281 l47 7 5 635 c6 687 2 665 118 593 93 -57 107 -92 107 -265 0
            -173 28 -221 116 -201 97 23 108 57 99 304 -9 268 15 237 -330 416 -366 189
            -335 237 -335 -529 0 -343 -7 -623 -16 -623 -26 0 -103 44 -119 68 -8 12 -15
            315 -15 673 0 748 14 691 -201 799 -168 85 -165 131 16 232 74 41 310 178 525
            303 505 295 397 300 1000 -51 657 -382 646 -328 126 -624 -218 -125 -416 -245
            -441 -267 l-45 -40 0 -685 0 -684 -71 -42 c-102 -60 -103 -58 -93 114 10 182
            -20 237 -114 214 -100 -25 -106 -42 -99 -272 13 -402 79 -421 532 -157 1122
            656 1025 570 1025 901 0 254 -10 268 -144 195 l-86 -48 -10 -156 c-9 -137 -16
            -162 -60 -196 -81 -64 -623 -378 -637 -369 -7 4 -10 119 -7 255 l7 247 168 96
            169 97 0 107 c0 145 -15 148 -190 30 l-150 -101 0 162 c0 199 0 199 380 428
            292 174 325 179 336 43 9 -103 142 -106 209 -4 19 29 19 495 0 525 -8 12 -276
            174 -595 358 -319 185 -616 356 -660 382 -115 67 -84 80 -796 -335z"/>
        <path d="M1833 1278 c-49 -69 -1 -158 85 -158 68 0 102 33 102 100 0 102 -129
            141 -187 58z"/>
    </g>
    <g viewBox="0 0 64 64" id="edit_bg" fill='#35353d'>
        <path class="cls-1" d="M36,16.7a11.82,11.82,0,0,0,1.48-8.43,10.21,10.21,0,0,0-4.8-6.87c-5.05-3-11.8-1-15,4.42l-2.31,3.9L33.69,20.6Zm-4.22-3.43-9.09-5.4C24.51,5.47,27.63,4.6,30,6a4.91,4.91,0,0,1,2.29,3.35A6.4,6.4,0,0,1,31.78,13.27Z"/>
        <path class="cls-1" d="M1.51,53.93l1.57.78,15.27-8.25L31,25.19,12.62,14.3,0,35.58.08,51.41A3,3,0,0,0,1.51,53.93Zm13-32.32,9.17,5.44L14.51,42.47,5.39,47.4,5.34,37Z"/>
        <rect class="cls-1" y="56.16" width="64" height="5.33" rx="2.67" ry="2.67"/>
    </g>

    <!-- caret-down -->
    <g id="caretd_svg" transform="translate(0.000000,512.000000) scale(0.100000,-0.100000)"
       fill="#000000" stroke="none">
      <path d="M235 3986 c-62 -20 -97 -41 -142 -88 -62 -64 -88 -127 -88 -218 0
        -149 -84 -55 1208 -1347 1292 -1292 1198 -1208 1347 -1208 149 0 55 -84 1347
       1208 1293 1292 1208 1198 1208 1347 -1 56 -6 88 -23 126 -29 63 -101 136 -167
       166 l-50 23 -2300 2 c-1835 1 -2308 -1 -2340 -11z"/>
    </g>

    <g id="caretl_svg" transform="translate(0.000000,1200.000000) scale(0.100000,-0.100000)"
fill="#000000" stroke="none">
<path d="M6998 9588 c-138 -18 -18 94 -1725 -1612 -1258 -1256 -1568 -1571
-1592 -1616 -42 -78 -57 -170 -43 -256 24 -146 -81 -33 1621 -1736 1497 -1498
1559 -1558 1626 -1590 65 -31 77 -33 176 -33 101 0 108 1 181 38 123 61 211
172 238 302 7 34 9 1033 8 3115 l-3 3065 -36 75 c-89 182 -257 274 -451 248z"/>
</g>
    
</svg>